# xmcd CD database file
#
# Track frame offsets:
#	150
#	17437
#	35270
#	48043
#	62198
#	76424
#	99155
#	113921
#	137570
#	166715
#	190408
#	201206
#	224753
#
# Disc length: 3271 seconds
#
# Revision: 0
# Processed by: cddbd v1.5.1PL0 Copyright (c) Steve Scherf et al.
# Submitted via: CDex 1.51
#
DISCID=a80cc50d
DTITLE=Eddie C. - The Human Element
DYEAR=2004
DGENRE=Jazz
TTITLE0=On the road
TTITLE1=Yeah, yeah, yeah
TTITLE2=You are my rhythm
TTITLE3=Preacher song
TTITLE4=Cyberlove
TTITLE5=Summertime
TTITLE6=Exotic vibes
TTITLE7=Cool connection
TTITLE8=Midnight lover
TTITLE9=Fragile
TTITLE10=Human element
TTITLE11=It don't mean a thing
TTITLE12=Circle
EXTD=YEAR: 2004
EXTT0=
EXTT1=
EXTT2=
EXTT3=
EXTT4=
EXTT5=
EXTT6=
EXTT7=
EXTT8=
EXTT9=
EXTT10=
EXTT11=
EXTT12=
PLAYORDER=
